<svg height="48" viewBox="0 0 48 48" width="48" xmlns="http://www.w3.org/2000/svg"><rect fill="#dbb63d" fill-opacity=".761719" height="31.348919" rx="6.29171" ry="6.207045" stroke="#000" stroke-width="1.6791" width="46.3209" x=".83955" y="10.199768"/><path d="m1.8347745 14.75175c-.1310167.400603-.2239125.818107-.2695478 1.250983v4.038835h44.9841143v-3.3884c0-.665137-.108028-1.303075-.303715-1.901418z" fill="#181405" fill-opacity=".761719"/><g stroke="#000" transform="matrix(1.1035455 -.3134462 .31889512 1.0938094 -10.993582 2.137289)"><ellipse cx="13.399458" cy="29.213869" fill="none" rx="6.38813" ry="5.909901" stroke-width="1.9"/><g stroke-width=".4"><path d="m22.032018 28.492365c-.194624.000093-.368292.29474-.434105.736502-.118468-.01578-.969458.02276-1.093958.02042-.661387-.01424-.47602.117095-.484412.35271-.006.236378.92551.423765 1.588907.437603.135421.0029-.128198.01325 0 0 .07219.410104.238845.676819.423568.677894.254662.000165.461221-.497363.461499-1.11159.000169-.614989-.206521-1.113708-.461499-1.113544z"/><path d="m16.084604 36.288646c-.04204-.176169-.389829-.26989-.86934-.234257-.009-.110646-.232908-.872715-.257274-.985925-.127531-.601804-.225928-.405694-.475923-.362509-.250287.04547-.246911.929162-.118517 1.532698.02612.123217-.04159-.113194 0 0-.41642.153736-.661445.362081-.622768.529537.05471.230574.623289.310344 1.270338.178223.647827-.132384 1.128602-.426972 1.073478-.657762z"/><path d="m16.898921 22.142399c-.111458.166316.08188.483554.483284.792965-.08357.09216-.533006.841238-.606688.946254-.393228.556845-.156434.473767.07296.615977.231498.140638.951673-.547767 1.345649-1.106565.0805-.114022-.0603.117116 0 0 .449023.173376.809654.183873.916595.02668.146121-.217459-.230036-.679072-.840425-1.031346-.611207-.35262-1.225399-.461885-1.371376-.243968z"/><path d="m11.342891 21.516891c.02053.194442.321986.330529.753523.340152-.0027.120364.123719.965712.134547 1.090399.05578.662613.162553.460725.389907.439176.22784-.02399.310106-.978531.25372-1.643103-.01144-.135669.02621.126403 0 0 .386608-.12423.625468-.32462.607094-.509323-.0266-.254458-.526512-.397628-1.116936-.319867-.591144.07796-1.048799.34783-1.02186.602563z"/><path d="m8.1834208 22.37872c.1783185.197853.045866.593441-.3310759.98881.124187.108677.8661459 1.00214.9825872 1.12692.6203807.661539.320457.570825.094936.754554-.2284352.181899-1.267851-.625437-1.8896698-1.289324-.1270067-.135468.1043917.140143 0 0-.4721093.231583-.8888774.260548-1.0592755.07361-.2336042-.258673.069515-.838542.6772394-1.295555.6085745-.457474 1.291692-.618264 1.5252652-.359022z"/><path d="m10.973191 26.179738c.08669.08562.271576.02204.462124-.158929.75344.76477.711115-.0058.291235-.389905-.05923-.06099.06192.05013 0 0 .117547-.226657.140692-.426752.05883-.508567-.113335-.112165-.386915.03335-.611236.325111-.224551.292172-.314552.620138-.200958.732286z"/></g><path d="m12.496788 32.531703c.07437-.141262-.123806-.328363-.49539-.467686.67623-1.237188-.416239-.830369-.732124-.160405-.0544.09768.03715-.09579 0 0-.395907-.0326-.699182.03303-.770798.166863-.09754.18478.27025.437798.821759.565317.552234.127594 1.079168.08099 1.17655-.104077z" stroke-width=".399999"/><path d="m16.830381 26.87129c-.104107.07278-.06524.250609.09715.444516-.926641.63055-.103546.662052.368274.306787.07376-.0495-.06267.05299 0 0 .222065.130197.43054.170133.529867.101502.136343-.09511.02433-.362999-.250257-.598513-.274989-.235764-.60866-.349655-.745026-.254298z" stroke-width=".4"/><ellipse cx="11.273862" cy="29.059528" rx=".421955" ry=".615654" stroke-width=".4"/><ellipse cx="26.760368" cy="20.940804" rx=".628622" ry=".860293" stroke-width=".40001" transform="matrix(.90563008 .42406858 -.43332115 .90123958 0 0)"/><path d="m18.998474 36.288726c-.210752-.176981-.104528-.672677.265526-1.239044-.144107-.08957-1.027504-.907164-1.164718-1.017627-.730733-.584746-.398705-.566886-.172395-.844687.229609-.276537 1.426001.355201 2.158506.942239.149613.119737-.125637-.131702 0 0 .487926-.404644.934932-.559022 1.136121-.392374.276051.231252.0028.989475-.610582 1.694045-.614226.70534-1.336388 1.089364-1.612451.857447z" stroke-width=".4"/><path d="m7.7161044 35.227132c.1816129-.157048.4570611-.09484.6716137-.03854.2341979.06802.4546447.171619.6638802.289528.3985928-.432708.8571735-.814578 1.2639837-1.240641.122585-.102165.25481-.270995.440141-.240856.143838.08903.290983.210974.373562.349694.03182.250488-.105499.485811-.21604.706467-.244321.444434-.560336.852836-.907074 1.232402.03373-.02081.116353-.110952.03469-.04201.223318.244066.458171.51754.490883.847804.02247.175718-.153786.310025-.333484.304532-.4127616.0022-.7915881-.189922-1.135252-.38335-.5142042-.311723-.9925587-.703629-1.2959052-1.205229-.0916991-.171928-.2011975-.407933-.0509982-.579799z" stroke-width=".4"/><path d="m4.665855 29.332101c.1919523-.05589.3583686.09499.4688531.222717.1120364.132483.196918.282896.2675026.437478.4828929-.180949.9880349-.305828 1.4740944-.47929.1264546-.02982.2778095-.104305.4020508-.03494.06634.118046.084173.274797.069785.404246-.1144622.202945-.3322327.331286-.5278956.461264-.3823619.237245-.7965221.428727-1.2217046.589436.080453-.0022.093843-.06076.046586.0039.015753.271055.016601.566257-.1431721.80453-.078636.127112-.267039.157287-.3930112.07332-.2703643-.168259-.4131405-.458102-.5296055-.7298-.1654103-.428399-.2563859-.894757-.1765635-1.348029.0349037-.153483.0921879-.337981.2630806-.404832z" stroke-width=".4"/></g><path d="m27.238081535 21.73140071176h6.93760905v6.93760905h-6.93760905z" fill="none" stroke="#000" stroke-width="1.07918363"/><path d="m28.98104789045 23.47436552551h3.45167788079v3.45167788079h-3.45167788079z"/><path d="m37.536491954 21.73140071176h6.93760905v6.93760905h-6.93760905z" fill="none" stroke="#000" stroke-width="1.07918363"/><path d="m39.28489739495 23.33251146242h3.45167788079v3.45167788079h-3.45167788079z"/><path d="m27.238081535 32.10639000114h6.93760905v6.93760905h-6.93760905z" fill="none" stroke="#000" stroke-width="1.07918363"/><path d="m28.98093534701 33.84935635659h3.45167788079v3.45167788079h-3.45167788079z"/><path d="m39.35879834824 34.2439259337h2.36306681094v2.36306681094h-2.36306681094z" fill="none" stroke="#000" stroke-width="1.07918208831"/></svg>