<svg height="82mm" viewBox="0 0 200.31496 309.92128" width="53mm" xmlns="http://www.w3.org/2000/svg" xmlns:xlink="http://www.w3.org/1999/xlink">
  <text>@inner</text>
  <text font-family="Lato" font-size="8" x="53.422554" y="205.35767"><tspan x="53.422554" y="205.35767">Scan mit CovPassCheck-App</tspan></text>
  <text font-family="Lato" font-size="8" transform="translate(-68.775787 -10.192031)" x="79.282852" y="241.41782"><tspan x="79.282852" y="241.41782">Name</tspan></text>
  <text font-family="Lato" font-size="10.6667" font-weight="bold" transform="translate(-68.175787 5.162532)" x="79.282852" y="241.41782"><tspan x="79.282852" y="241.41782">@name</tspan></text>
  <text font-family="Lato" font-size="8" transform="translate(-68.039797 27.045334)" x="79.282852" y="241.41782"><tspan x="79.282852" y="241.41782">Letzte Impfung/</tspan><tspan x="79.282852" y="251.41782">Last Vaccination</tspan></text>
  <text x="53.094814" y="236.42258"><tspan x="53.094814" y="236.42258"/></text>
  <g font-family="Lato">
    <text font-size="8" transform="translate(24.778676 -11.588031)" x="79.282852" y="241.41782"><tspan x="79.282852" y="241.41782">Geburtstag/Date of Birth</tspan></text>
    <text font-size="12" font-weight="bold" text-anchor="end" transform="translate(49.117734 5.162532)" x="142.37883" y="241.41782"><tspan x="142.37883" y="241.41782">@birth</tspan></text>
    <text font-size="12" font-weight="bold" transform="translate(-67.763797 54.83924)" x="79.282852" y="241.41782"><tspan x="79.282852" y="241.41782">@lastvacc</tspan></text>
    <text font-size="12" font-weight="bold" text-anchor="end" transform="translate(91.050946 54.36524)" x="97.834846" y="241.41782"><tspan x="97.834846" y="241.41782">@dose</tspan></text>
    <text font-size="8" transform="translate(44.799619 27.045334)" x="79.282852" y="241.41782"><tspan x="79.282852" y="241.41782">Anzahl Impfungen/</tspan><tspan x="79.282852" y="251.41782">Number of Doses</tspan></text>
  </g>
</svg>
