<?xml version="1.0" encoding="UTF-8" standalone="no"?>
<!-- Created with Inkscape (http://www.inkscape.org/) -->

<svg
   width="48"
   height="48"
   viewBox="0 0 48 48"
   version="1.1"
   id="svg5"
   inkscape:version="1.1.1 (3bf5ae0d25, 2021-09-20)"
   sodipodi:docname="favicon.svg"
   xmlns:inkscape="http://www.inkscape.org/namespaces/inkscape"
   xmlns:sodipodi="http://sodipodi.sourceforge.net/DTD/sodipodi-0.dtd"
   xmlns="http://www.w3.org/2000/svg"
   xmlns:svg="http://www.w3.org/2000/svg">
  <sodipodi:namedview
     id="namedview7"
     pagecolor="#ffffff"
     bordercolor="#666666"
     borderopacity="1.0"
     inkscape:pageshadow="2"
     inkscape:pageopacity="0.0"
     inkscape:pagecheckerboard="0"
     inkscape:document-units="px"
     showgrid="false"
     inkscape:zoom="8"
     inkscape:cx="11.8125"
     inkscape:cy="29.625"
     inkscape:window-width="2560"
     inkscape:window-height="1371"
     inkscape:window-x="0"
     inkscape:window-y="0"
     inkscape:window-maximized="1"
     inkscape:current-layer="layer1" />
  <defs
     id="defs2" />
  <g
     inkscape:label="Layer 1"
     inkscape:groupmode="layer"
     id="layer1">
    <rect
       style="fill:#db8a3d;fill-opacity:1;stroke:#000000;stroke-width:3.93408;stroke-miterlimit:4;stroke-dasharray:none;stroke-opacity:1;stop-color:#000000"
       id="rect31"
       width="44.065914"
       height="44.065918"
       x="1.9670427"
       y="1.9670427"
       ry="6.2070446"
       rx="6.2070446" />
    <g
       id="g16963"
       transform="matrix(0.92500665,0,0,0.85598392,2.0909603,3.8115268)"
       style="stroke-width:1.68572;stroke-miterlimit:4;stroke-dasharray:none">
      <path
         id="path1312"
         style="fill:#000000;fill-opacity:1;stroke:#000000;stroke-width:1.68572;stroke-miterlimit:4;stroke-dasharray:none;stroke-opacity:1;stop-color:#000000"
         d="m 38.323209,16.852711 c -0.9293,0.917639 0.06485,3.123482 -1.595663,2.900146 -1.319654,-0.101852 -3.23939,2.116239 -0.875189,2.30604 1.44841,0.301934 2.692237,-1.568962 3.170892,0.787086 2.051406,0.829661 0.978966,-4.574559 -0.04664,-5.663774 -0.172943,-0.212795 -0.409791,-0.42139 -0.653398,-0.329498 z"
         sodipodi:nodetypes="ccccccccc" />
      <path
         id="path2283"
         style="fill:#000000;fill-opacity:1;stroke:#000000;stroke-width:1.68572;stroke-miterlimit:4;stroke-dasharray:none;stroke-opacity:1;stop-color:#000000"
         d="m 37.307273,34.277091 c -1.30014,-0.883721 0.782511,-2.702629 -1.549236,-2.810739 -1.027057,-0.572738 -4.389866,-0.978529 -2.550755,-2.304243 1.67164,-0.591601 4.667075,1.007669 5.276268,0.5736 0.647565,-1.320283 3.167588,-1.517289 2.564931,0.306473 -0.414195,1.655773 -1.370007,3.645046 -3.431479,4.276126 l -0.309716,-0.04122 z"
         sodipodi:nodetypes="ccccccccc" />
      <ellipse
         style="fill:none;fill-opacity:1;stroke:#000000;stroke-width:4.49556;stroke-miterlimit:4;stroke-dasharray:none;stroke-opacity:1;stop-color:#000000"
         id="path1164"
         cx="15.737669"
         cy="28.944118"
         rx="11.645742"
         ry="10.539045"
         transform="matrix(0.96321582,-0.26872903,0.28454672,0.95866217,0,0)" />
      <path
         id="path1589"
         style="fill:#000000;fill-opacity:1;stroke:#000000;stroke-width:1.68572;stroke-miterlimit:4;stroke-dasharray:none;stroke-opacity:1;stop-color:#000000"
         d="m 33.66874,36.812437 c -1.126043,-0.840979 -2.526354,0.777781 -2.894445,-1.699091 -0.127811,-1.74652 -2.071168,-2.756313 -1.897554,-0.388932 0.01661,2.071777 1.854865,3.458663 -0.0028,4.507705 -0.364098,2.621153 3.113474,0.409158 3.935658,-0.567097 0.375299,-0.452849 1.054119,-1.067628 0.859058,-1.852585 z"
         sodipodi:nodetypes="ccccccccc"
         inkscape:transform-center-x="-5.4358639"
         inkscape:transform-center-y="-0.016906785" />
      <path
         id="path1773"
         style="fill:#000000;fill-opacity:1;stroke:#000000;stroke-width:1.68572;stroke-miterlimit:4;stroke-dasharray:none;stroke-opacity:1;stop-color:#000000"
         d="m 27.985627,8.1231343 c 0.0884,1.3423778 2.759485,1.1371475 1.366476,2.7353617 -0.931438,1.192241 -0.705613,3.788124 1.193659,2.025379 1.431787,-1.273824 0.899132,-3.5280998 3.207668,-2.847919 C 35.953891,8.8390622 31.594049,7.5306558 30.329393,7.5874012 29.561502,7.573885 28.456228,7.431265 27.985627,8.1231343 Z"
         sodipodi:nodetypes="ccccccccc" />
      <path
         id="path1775"
         style="fill:#000000;fill-opacity:1;stroke:#000000;stroke-width:1.68572;stroke-miterlimit:4;stroke-dasharray:none;stroke-opacity:1;stop-color:#000000"
         d="m 13.803627,10.296199 c 1.067754,1.326498 3.100641,-0.5099495 3.163551,2.099976 0.122854,2.05552 2.652758,4.753967 2.449193,1.059741 0.05571,-2.288997 -2.0186,-3.9721381 0.251731,-5.0167994 0.473596,-3.289677 -4.715971,-0.9317295 -5.645594,0.8017605 -0.183181,0.2948428 -0.351694,0.6902724 -0.218881,1.0553219 z"
         sodipodi:nodetypes="ccccccccc" />
      <path
         id="path1777"
         style="fill:#000000;fill-opacity:1;stroke:#000000;stroke-width:1.68572;stroke-miterlimit:4;stroke-dasharray:none;stroke-opacity:1;stop-color:#000000"
         d="m 9.4864113,14.321905 c 0.8161027,1.267657 -0.742522,3.128655 0.8817277,3.59206 0.746558,0.760819 3.502687,2.611332 1.335415,3.228661 C 9.9895483,21.309127 8.535063,17.773046 7.4956917,19.918782 5.4389782,21.193756 6.2819716,16.699751 7.3154838,15.761872 7.857514,14.983958 8.663902,13.861117 9.4864113,14.321905 Z"
         sodipodi:nodetypes="ccccccccc" />
      <path
         id="path1779"
         style="fill:#000000;fill-opacity:1;stroke:#000000;stroke-width:1.68572;stroke-miterlimit:4;stroke-dasharray:none;stroke-opacity:1;stop-color:#000000"
         d="m 21.793166,20.31984 c 1.310494,-0.240693 1.849484,-0.58614 3.374908,-0.165271 1.596538,-0.612456 -2.356881,-1.031176 -1.297985,-1.920469 -1.621627,-0.580274 -3.227847,1.634088 -2.076923,2.08574 z"
         sodipodi:nodetypes="cccccccc" />
      <ellipse
         style="fill:#000000;fill-opacity:1;stroke:#000000;stroke-width:1.68584;stroke-miterlimit:4;stroke-dasharray:none;stroke-opacity:1;stop-color:#000000"
         id="path2020"
         cx="11.862647"
         cy="28.668884"
         rx="0.76923555"
         ry="1.0978881"
         transform="matrix(0.96321582,-0.26872903,0.28454672,0.95866217,0,0)" />
      <ellipse
         style="fill:#000000;fill-opacity:1;stroke:#000000;stroke-width:1.69304;stroke-miterlimit:4;stroke-dasharray:none;stroke-opacity:1;stop-color:#000000"
         id="path2022"
         cx="32.405666"
         cy="23.10376"
         rx="1.8941122"
         ry="1.8165582"
         transform="matrix(0.99401871,0.10920991,-0.23850803,0.97114053,0,0)" />
      <path
         id="path2285"
         style="fill:#000000;fill-opacity:1;stroke:#000000;stroke-width:1.68572;stroke-miterlimit:4;stroke-dasharray:none;stroke-opacity:1;stop-color:#000000"
         d="m 14.307987,38.390444 c 1.446865,-1.212373 3.735959,0.582143 4.192201,-1.896308 0.665723,-1.206919 2.084131,-4.279241 3.284804,-1.899651 0.39862,1.603955 -1.669917,4.127795 -1.114872,4.746423 1.965849,0.622222 1.698051,3.126221 -0.578291,2.474068 -2.093943,-0.290133 -4.408459,-0.974963 -5.740588,-2.724204 l -0.108863,-0.340606 0.06562,-0.359717 z"
         sodipodi:nodetypes="ccccccccc" />
      <path
         id="path2287"
         style="fill:#000000;fill-opacity:1;stroke:#000000;stroke-width:1.68572;stroke-miterlimit:4;stroke-dasharray:none;stroke-opacity:1;stop-color:#000000"
         d="m 7.1931984,31.018835 c 1.6322651,-0.500887 2.4631511,1.944774 3.8310216,0.234213 1.017058,-0.595028 4.121501,-2.720527 3.64348,-0.34343 -0.990787,2.029906 -4.652974,2.230833 -3.250817,4.429176 C 10.528657,37.66494 7.4808273,34.487466 7.1373812,33.22717 6.8856885,32.554404 6.4552868,31.586873 7.1931984,31.018835 Z"
         sodipodi:nodetypes="ccccccccc" />
    </g>
  </g>
</svg>
