<?xml version="1.0" encoding="UTF-8" standalone="no"?>
<!-- Created with Inkscape (http://www.inkscape.org/) -->

<svg
   width="48"
   height="48"
   viewBox="0 0 48 48"
   version="1.1"
   id="svg5"
   inkscape:version="1.1.1 (3bf5ae0d25, 2021-09-20)"
   sodipodi:docname="icon.svg"
   xmlns:inkscape="http://www.inkscape.org/namespaces/inkscape"
   xmlns:sodipodi="http://sodipodi.sourceforge.net/DTD/sodipodi-0.dtd"
   xmlns="http://www.w3.org/2000/svg"
   xmlns:svg="http://www.w3.org/2000/svg">
  <sodipodi:namedview
     id="namedview7"
     pagecolor="#ffffff"
     bordercolor="#666666"
     borderopacity="1.0"
     inkscape:pageshadow="2"
     inkscape:pageopacity="0.0"
     inkscape:pagecheckerboard="0"
     inkscape:document-units="px"
     showgrid="false"
     inkscape:zoom="22.627417"
     inkscape:cx="35.598407"
     inkscape:cy="30.759145"
     inkscape:window-width="2560"
     inkscape:window-height="1371"
     inkscape:window-x="0"
     inkscape:window-y="0"
     inkscape:window-maximized="1"
     inkscape:current-layer="layer1" />
  <defs
     id="defs2" />
  <g
     inkscape:label="Layer 1"
     inkscape:groupmode="layer"
     id="layer1">
    <rect
       style="fill:#666666;fill-opacity:1;stroke:none;stroke-width:1.52813;stroke-opacity:1;stop-color:#000000"
       id="rect936"
       width="47.001717"
       height="4.4992023"
       x="0.49131167"
       y="14.472771" />
    <rect
       style="fill:none;fill-opacity:1;stroke:#000000;stroke-width:1.7;stroke-opacity:1;stop-color:#000000;stroke-miterlimit:4;stroke-dasharray:none"
       id="rect31"
       width="46.859535"
       height="31.337627"
       x="0.59278351"
       y="9.4016323"
       ry="6.2070446" />
    <g
       id="g15770"
       transform="matrix(1.1035455,-0.3134462,0.31889512,1.0938094,-10.993582,1.2975995)">
      <ellipse
         style="fill:none;fill-opacity:1;stroke:#000000;stroke-width:1.9;stroke-miterlimit:4;stroke-dasharray:none;stroke-opacity:1;stop-color:#000000"
         id="path1164"
         cx="13.399458"
         cy="29.213869"
         rx="6.3881297"
         ry="5.9099007" />
      <path
         id="path1312"
         style="fill:#000000;fill-opacity:1;stroke:#000000;stroke-width:0.4;stroke-miterlimit:4;stroke-dasharray:none;stroke-opacity:1;stop-color:#000000"
         d="m 22.032018,28.492365 c -0.194624,9.3e-5 -0.368292,0.29474 -0.434105,0.736502 -0.118468,-0.01578 -0.969458,0.02276 -1.093958,0.02042 -0.661387,-0.01424 -0.47602,0.117095 -0.484412,0.35271 -0.006,0.236378 0.92551,0.423765 1.588907,0.437603 0.135421,0.0029 -0.128198,0.01325 0,0 0.07219,0.410104 0.238845,0.676819 0.423568,0.677894 0.254662,1.65e-4 0.461221,-0.497363 0.461499,-1.11159 1.69e-4,-0.614989 -0.206521,-1.113708 -0.461499,-1.113544 z"
         sodipodi:nodetypes="ccccccccc" />
      <path
         id="path1589"
         style="fill:#000000;fill-opacity:1;stroke:#000000;stroke-width:0.4;stroke-miterlimit:4;stroke-dasharray:none;stroke-opacity:1;stop-color:#000000"
         d="m 16.084604,36.288646 c -0.04204,-0.176169 -0.389829,-0.26989 -0.86934,-0.234257 -0.009,-0.110646 -0.232908,-0.872715 -0.257274,-0.985925 -0.127531,-0.601804 -0.225928,-0.405694 -0.475923,-0.362509 -0.250287,0.04547 -0.246911,0.929162 -0.118517,1.532698 0.02612,0.123217 -0.04159,-0.113194 0,0 -0.41642,0.153736 -0.661445,0.362081 -0.622768,0.529537 0.05471,0.230574 0.623289,0.310344 1.270338,0.178223 0.647827,-0.132384 1.128602,-0.426972 1.073478,-0.657762 z"
         sodipodi:nodetypes="ccccccccc"
         inkscape:transform-center-x="-4.265282"
         inkscape:transform-center-y="-0.01004537" />
      <path
         id="path1773"
         style="fill:#000000;fill-opacity:1;stroke:#000000;stroke-width:0.4;stroke-miterlimit:4;stroke-dasharray:none;stroke-opacity:1;stop-color:#000000"
         d="m 16.898921,22.142399 c -0.111458,0.166316 0.08188,0.483554 0.483284,0.792965 -0.08357,0.09216 -0.533006,0.841238 -0.606688,0.946254 -0.393228,0.556845 -0.156434,0.473767 0.07296,0.615977 0.231498,0.140638 0.951673,-0.547767 1.345649,-1.106565 0.0805,-0.114022 -0.0603,0.117116 0,0 0.449023,0.173376 0.809654,0.183873 0.916595,0.02668 0.146121,-0.217459 -0.230036,-0.679072 -0.840425,-1.031346 -0.611207,-0.35262 -1.225399,-0.461885 -1.371376,-0.243968 z"
         sodipodi:nodetypes="ccccccccc" />
      <path
         id="path1775"
         style="fill:#000000;fill-opacity:1;stroke:#000000;stroke-width:0.4;stroke-miterlimit:4;stroke-dasharray:none;stroke-opacity:1;stop-color:#000000"
         d="m 11.342891,21.516891 c 0.02053,0.194442 0.321986,0.330529 0.753523,0.340152 -0.0027,0.120364 0.123719,0.965712 0.134547,1.090399 0.05578,0.662613 0.162553,0.460725 0.389907,0.439176 0.22784,-0.02399 0.310106,-0.978531 0.25372,-1.643103 -0.01144,-0.135669 0.02621,0.126403 0,0 0.386608,-0.12423 0.625468,-0.32462 0.607094,-0.509323 -0.0266,-0.254458 -0.526512,-0.397628 -1.116936,-0.319867 -0.591144,0.07796 -1.048799,0.34783 -1.02186,0.602563 z"
         sodipodi:nodetypes="ccccccccc" />
      <path
         id="path1777"
         style="fill:#000000;fill-opacity:1;stroke:#000000;stroke-width:0.4;stroke-miterlimit:4;stroke-dasharray:none;stroke-opacity:1;stop-color:#000000"
         d="m 8.1834208,22.37872 c 0.1783185,0.197853 0.045866,0.593441 -0.3310759,0.98881 0.124187,0.108677 0.8661459,1.00214 0.9825872,1.12692 0.6203807,0.661539 0.320457,0.570825 0.094936,0.754554 -0.2284352,0.181899 -1.267851,-0.625437 -1.8896698,-1.289324 -0.1270067,-0.135468 0.1043917,0.140143 0,0 -0.4721093,0.231583 -0.8888774,0.260548 -1.0592755,0.07361 -0.2336042,-0.258673 0.069515,-0.838542 0.6772394,-1.295555 0.6085745,-0.457474 1.291692,-0.618264 1.5252652,-0.359022 z"
         sodipodi:nodetypes="ccccccccc" />
      <path
         id="path1779"
         style="fill:#000000;fill-opacity:1;stroke:#000000;stroke-width:0.4;stroke-miterlimit:4;stroke-dasharray:none;stroke-opacity:1;stop-color:#000000"
         d="m 10.973191,26.179738 c 0.08669,0.08562 0.271576,0.02204 0.462124,-0.158929 0.75344,0.76477 0.711115,-0.0058 0.291235,-0.389905 -0.05923,-0.06099 0.06192,0.05013 0,0 0.117547,-0.226657 0.140692,-0.426752 0.05883,-0.508567 -0.113335,-0.112165 -0.386915,0.03335 -0.611236,0.325111 -0.224551,0.292172 -0.314552,0.620138 -0.200958,0.732286 z"
         sodipodi:nodetypes="cccccccc" />
      <path
         id="path1914"
         style="fill:#000000;fill-opacity:1;stroke:#000000;stroke-width:0.399999;stroke-miterlimit:4;stroke-dasharray:none;stroke-opacity:1;stop-color:#000000"
         d="m 12.496788,32.531703 c 0.07437,-0.141262 -0.123806,-0.328363 -0.49539,-0.467686 0.67623,-1.237188 -0.416239,-0.830369 -0.732124,-0.160405 -0.0544,0.09768 0.03715,-0.09579 0,0 -0.395907,-0.0326 -0.699182,0.03303 -0.770798,0.166863 -0.09754,0.18478 0.27025,0.437798 0.821759,0.565317 0.552234,0.127594 1.079168,0.08099 1.17655,-0.104077 z"
         sodipodi:nodetypes="cccccccc" />
      <path
         id="path1996"
         style="fill:#000000;fill-opacity:1;stroke:#000000;stroke-width:0.4;stroke-miterlimit:4;stroke-dasharray:none;stroke-opacity:1;stop-color:#000000"
         d="m 16.830381,26.87129 c -0.104107,0.07278 -0.06524,0.250609 0.09715,0.444516 -0.926641,0.63055 -0.103546,0.662052 0.368274,0.306787 0.07376,-0.0495 -0.06267,0.05299 0,0 0.222065,0.130197 0.43054,0.170133 0.529867,0.101502 0.136343,-0.09511 0.02433,-0.362999 -0.250257,-0.598513 -0.274989,-0.235764 -0.60866,-0.349655 -0.745026,-0.254298 z"
         sodipodi:nodetypes="cccccccc"
         inkscape:transform-center-x="0.95617676"
         inkscape:transform-center-y="-1.1715088" />
      <ellipse
         style="fill:#000000;fill-opacity:1;stroke:#000000;stroke-width:0.4;stroke-miterlimit:4;stroke-dasharray:none;stroke-opacity:1;stop-color:#000000"
         id="path2020"
         cx="11.273862"
         cy="29.059528"
         rx="0.42195475"
         ry="0.61565441" />
      <ellipse
         style="fill:#000000;fill-opacity:1;stroke:#000000;stroke-width:0.40001;stroke-miterlimit:4;stroke-dasharray:none;stroke-opacity:1;stop-color:#000000"
         id="path2022"
         cx="26.760368"
         cy="20.940804"
         rx="0.62862206"
         ry="0.86029255"
         transform="matrix(0.90563008,0.42406858,-0.43332115,0.90123958,0,0)" />
      <path
         id="path2283"
         style="fill:#000000;fill-opacity:1;stroke:#000000;stroke-width:0.4;stroke-miterlimit:4;stroke-dasharray:none;stroke-opacity:1;stop-color:#000000"
         d="m 18.998474,36.288726 c -0.210752,-0.176981 -0.104528,-0.672677 0.265526,-1.239044 -0.144107,-0.08957 -1.027504,-0.907164 -1.164718,-1.017627 -0.730733,-0.584746 -0.398705,-0.566886 -0.172395,-0.844687 0.229609,-0.276537 1.426001,0.355201 2.158506,0.942239 0.149613,0.119737 -0.125637,-0.131702 0,0 0.487926,-0.404644 0.934932,-0.559022 1.136121,-0.392374 0.276051,0.231252 0.0028,0.989475 -0.610582,1.694045 -0.614226,0.70534 -1.336388,1.089364 -1.612451,0.857447 z"
         sodipodi:nodetypes="ccccccccc" />
      <path
         id="path2285"
         style="fill:#000000;fill-opacity:1;stroke:#000000;stroke-width:0.4;stroke-miterlimit:4;stroke-dasharray:none;stroke-opacity:1;stop-color:#000000"
         d="m 7.7161044,35.227132 c 0.1816129,-0.157048 0.4570611,-0.09484 0.6716137,-0.03854 0.2341979,0.06802 0.4546447,0.171619 0.6638802,0.289528 0.3985928,-0.432708 0.8571735,-0.814578 1.2639837,-1.240641 0.122585,-0.102165 0.25481,-0.270995 0.440141,-0.240856 0.143838,0.08903 0.290983,0.210974 0.373562,0.349694 0.03182,0.250488 -0.105499,0.485811 -0.21604,0.706467 -0.244321,0.444434 -0.560336,0.852836 -0.907074,1.232402 0.03373,-0.02081 0.116353,-0.110952 0.03469,-0.04201 0.223318,0.244066 0.458171,0.51754 0.490883,0.847804 0.02247,0.175718 -0.153786,0.310025 -0.333484,0.304532 C 9.7854984,37.397712 9.4066719,37.20559 9.063008,37.012162 8.5488038,36.700439 8.0704493,36.308533 7.7671028,35.806933 7.6754037,35.635005 7.5659053,35.399 7.7161046,35.227134 Z"
         sodipodi:nodetypes="ccccccccc" />
      <path
         id="path2287"
         style="fill:#000000;fill-opacity:1;stroke:#000000;stroke-width:0.4;stroke-miterlimit:4;stroke-dasharray:none;stroke-opacity:1;stop-color:#000000"
         d="m 4.665855,29.332101 c 0.1919523,-0.05589 0.3583686,0.09499 0.4688531,0.222717 0.1120364,0.132483 0.196918,0.282896 0.2675026,0.437478 0.4828929,-0.180949 0.9880349,-0.305828 1.4740944,-0.47929 0.1264546,-0.02982 0.2778095,-0.104305 0.4020508,-0.03494 0.06634,0.118046 0.084173,0.274797 0.069785,0.404246 -0.1144622,0.202945 -0.3322327,0.331286 -0.5278956,0.461264 -0.3823619,0.237245 -0.7965221,0.428727 -1.2217046,0.589436 0.080453,-0.0022 0.093843,-0.06076 0.046586,0.0039 0.015753,0.271055 0.016601,0.566257 -0.1431721,0.80453 -0.078636,0.127112 -0.267039,0.157287 -0.3930112,0.07332 C 4.8385791,31.646503 4.6958029,31.35666 4.5793379,31.084962 4.4139276,30.656563 4.322952,30.190205 4.4027744,29.736933 4.4376781,29.58345 4.4949623,29.398952 4.665855,29.332101 Z"
         sodipodi:nodetypes="ccccccccc" />
    </g>
    <g
       id="g15754"
       transform="matrix(1.5416909,0,0,1.5416909,-20.78559,-14.55115)">
      <g
         id="g13731"
         transform="translate(1.905772,0.68500472)">
        <rect
           style="fill:none;fill-opacity:1;stroke:#000000;stroke-width:0.7;stroke-miterlimit:4;stroke-dasharray:none;stroke-opacity:1;stop-color:#000000"
           id="rect4844"
           width="4.5"
           height="4.5"
           x="29.244228"
           y="22.275934" />
        <rect
           style="fill:#000000;fill-opacity:1;stroke:none;stroke-width:0.5;stroke-miterlimit:4;stroke-dasharray:none;stroke-opacity:1;stop-color:#000000"
           id="rect5134"
           width="2.2388914"
           height="2.2388914"
           x="30.374783"
           y="23.406488" />
      </g>
      <g
         id="g14506"
         transform="translate(-0.3535534,0.44194175)">
        <rect
           style="fill:none;fill-opacity:1;stroke:#000000;stroke-width:0.7;stroke-miterlimit:4;stroke-dasharray:none;stroke-opacity:1;stop-color:#000000"
           id="rect5176"
           width="4.5"
           height="4.5"
           x="38.183498"
           y="22.518997" />
        <rect
           style="fill:#000000;fill-opacity:1;stroke:none;stroke-width:0.5;stroke-miterlimit:4;stroke-dasharray:none;stroke-opacity:1;stop-color:#000000"
           id="rect5178"
           width="2.2388914"
           height="2.2388914"
           x="39.317581"
           y="23.557539" />
      </g>
      <g
         id="g13741"
         transform="translate(0.90012,-2.3422916)">
        <rect
           style="fill:none;fill-opacity:1;stroke:#000000;stroke-width:0.7;stroke-miterlimit:4;stroke-dasharray:none;stroke-opacity:1;stop-color:#000000"
           id="rect5180"
           width="4.5"
           height="4.5"
           x="30.24988"
           y="32.032848" />
        <rect
           style="fill:#000000;fill-opacity:1;stroke:none;stroke-width:0.5;stroke-miterlimit:4;stroke-dasharray:none;stroke-opacity:1;stop-color:#000000"
           id="rect5182"
           width="2.2388914"
           height="2.2388914"
           x="31.380362"
           y="33.163403" />
      </g>
      <rect
         style="fill:none;fill-opacity:1;stroke:#000000;stroke-width:0.699999;stroke-miterlimit:4;stroke-dasharray:none;stroke-opacity:1;stop-color:#000000"
         id="rect14508"
         width="1.5327756"
         height="1.5327756"
         x="39.011963"
         y="31.077044" />
    </g>
  </g>
</svg>
