<?xml version="1.0" encoding="UTF-8" standalone="no"?>
<!-- Created with Inkscape (http://www.inkscape.org/) -->

<svg
   width="48"
   height="48"
   viewBox="0 0 48 48"
   version="1.1"
   id="svg5"
   inkscape:version="1.1.1 (3bf5ae0d25, 2021-09-20)"
   sodipodi:docname="favicon.svg"
   xmlns:inkscape="http://www.inkscape.org/namespaces/inkscape"
   xmlns:sodipodi="http://sodipodi.sourceforge.net/DTD/sodipodi-0.dtd"
   xmlns="http://www.w3.org/2000/svg"
   xmlns:svg="http://www.w3.org/2000/svg">
  <sodipodi:namedview
     id="namedview7"
     pagecolor="#ffffff"
     bordercolor="#666666"
     borderopacity="1.0"
     inkscape:pageshadow="2"
     inkscape:pageopacity="0.0"
     inkscape:pagecheckerboard="0"
     inkscape:document-units="px"
     showgrid="false"
     inkscape:zoom="8"
     inkscape:cx="11.8125"
     inkscape:cy="29.625"
     inkscape:window-width="2560"
     inkscape:window-height="1371"
     inkscape:window-x="0"
     inkscape:window-y="0"
     inkscape:window-maximized="1"
     inkscape:current-layer="layer1" />
  <defs
     id="defs2" />
  <g
     inkscape:label="Layer 1"
     inkscape:groupmode="layer"
     id="layer1">
    <path
       id="path1312"
       style="fill:#4a0e3b;fill-opacity:1;stroke:#db8a3d;stroke-width:4;stroke-miterlimit:4;stroke-dasharray:none;stroke-opacity:1;stop-color:#000000"
       d="m 45.094018,18.767133 c -1.488034,1.159843 -0.971882,5.462492 -3.002036,4.294974 -1.638945,-0.796312 -4.821727,2.160443 -1.887979,3.599811 1.734684,1.204688 3.943242,-1.465394 3.755058,2.856608 2.321184,2.405388 2.785146,-7.496313 1.852264,-9.871788 -0.147477,-0.451218 -0.377403,-0.925116 -0.717309,-0.879606 z"
       sodipodi:nodetypes="ccccccccc" />
    <ellipse
       style="fill:#4a0e3b;fill-opacity:0.727542;stroke:#db8a3d;stroke-width:4.10762;stroke-miterlimit:4;stroke-dasharray:none;stroke-opacity:1;stop-color:#000000"
       id="path1164"
       cx="16.069025"
       cy="28.430191"
       rx="14.308073"
       ry="12.874075"
       transform="matrix(0.96368569,-0.26703911,0.28632852,0.9581315,0,0)" />
    <path
       id="path1589"
       style="fill:#4a0e3b;fill-opacity:1;stroke:#db8a3d;stroke-width:4;stroke-miterlimit:4;stroke-dasharray:none;stroke-opacity:1;stop-color:#000000"
       d="m 38.98832,39.020784 c -1.665993,-0.782205 -3.05007,1.650509 -4.16297,-1.419391 -0.615219,-2.198916 -3.376468,-2.984495 -2.542072,-0.004 0.556073,2.643505 3.279408,3.938335 1.159765,5.761774 0.207987,3.444557 4.111888,-0.286113 4.91788,-1.747453 0.366043,-0.676282 1.080852,-1.638387 0.627267,-2.590909 z"
       sodipodi:nodetypes="ccccccccc"
       inkscape:transform-center-x="-5.0245923"
       inkscape:transform-center-y="-0.63673443" />
    <path
       id="path1773"
       style="fill:#4a0e3b;fill-opacity:1;stroke:#db8a3d;stroke-width:4;stroke-miterlimit:4;stroke-dasharray:none;stroke-opacity:1;stop-color:#000000"
       d="m 32.694634,4.192008 c -0.07268,1.7525853 3.442198,1.8632846 1.400243,3.7385667 -1.382669,1.4141228 -1.451589,4.8110033 1.274155,2.7938453 2.047122,-1.4493073 1.667732,-4.4466404 4.585397,-3.2393224 3.039568,-1.2411671 -2.46732,-3.5521732 -4.125815,-3.6569854 -1.000309,-0.1258269 -2.42286,-0.4665958 -3.13398,0.3638958 z"
       sodipodi:nodetypes="ccccccccc" />
    <path
       id="path1777"
       style="fill:#4a0e3b;fill-opacity:1;stroke:#db8a3d;stroke-width:5;stroke-miterlimit:4;stroke-dasharray:none;stroke-opacity:1;stop-color:#000000"
       d="m 8.9348499,4.8163405 c 1.0713251,1.652825 -0.9747335,4.079272 1.1574731,4.683479 0.980032,0.9919875 4.598095,3.4047645 1.753044,4.2096645 C 9.5953346,13.926575 7.6859832,9.3160835 6.3215658,12.113784 3.6216493,13.776149 4.7282748,7.9166765 6.0850008,6.6938305 6.796542,5.6795535 7.8551144,4.2155455 8.9348499,4.8163405 Z"
       sodipodi:nodetypes="ccccccccc" />
    <ellipse
       style="fill:#4a0e3b;fill-opacity:1;stroke:#db8a3d;stroke-width:5.02247;stroke-miterlimit:4;stroke-dasharray:none;stroke-opacity:1;stop-color:#000000"
       id="path2022"
       cx="30.006826"
       cy="19.606447"
       rx="2.4862642"
       ry="2.369427"
       transform="matrix(0.99409875,0.10847896,-0.24004106,0.97076274,0,0)" />
    <path
       id="path2287"
       style="fill:#4a0e3b;fill-opacity:1;stroke:#db8a3d;stroke-width:4;stroke-miterlimit:4;stroke-dasharray:none;stroke-opacity:1;stop-color:#000000"
       d="m 7.6638618,39.231936 c 1.6545985,-1.367303 3.8221162,1.534533 4.5752732,-1.330938 0.892136,-1.228884 3.463509,-5.391887 4.073461,-2.020059 -0.157419,3.129196 -4.322591,4.967431 -1.611323,7.294793 0.10736,3.479869 -5.000395,0.553846 -6.0187157,-0.977862 C 8.0593778,41.409537 7.0834838,40.305149 7.6638618,39.231936 Z"
       sodipodi:nodetypes="ccccccccc" />
  </g>
</svg>
